<mxfile host="Electron" modified="2024-03-17T08:42:38.796Z" agent="Mozilla/5.0 (X11; Linux x86_64) AppleWebKit/537.36 (KHTML, like Gecko) draw.io/24.0.4 Chrome/120.0.6099.109 Electron/28.1.0 Safari/537.36" etag="-HCTJ8HAChLvaNR8mRcX" version="24.0.4" type="device">
  <diagram name="Страница — 1" id="y6kOXEvYQBEln-1C2adg">
    <mxGraphModel dx="1050" dy="1832" grid="1" gridSize="10" guides="1" tooltips="1" connect="1" arrows="1" fold="1" page="1" pageScale="1" pageWidth="827" pageHeight="1169" math="0" shadow="0">
      <root>
        <mxCell id="0" />
        <mxCell id="1" parent="0" />
        <mxCell id="VwUzr8KAtOCYi1jI3wio-3" value="" style="edgeStyle=orthogonalEdgeStyle;rounded=0;orthogonalLoop=1;jettySize=auto;html=1;" edge="1" parent="1" source="VwUzr8KAtOCYi1jI3wio-4" target="VwUzr8KAtOCYi1jI3wio-2">
          <mxGeometry relative="1" as="geometry" />
        </mxCell>
        <mxCell id="VwUzr8KAtOCYi1jI3wio-1" value="add point to checked points list" style="rounded=1;whiteSpace=wrap;html=1;" vertex="1" parent="1">
          <mxGeometry x="160" y="10" width="120" height="60" as="geometry" />
        </mxCell>
        <mxCell id="VwUzr8KAtOCYi1jI3wio-7" value="" style="edgeStyle=orthogonalEdgeStyle;rounded=0;orthogonalLoop=1;jettySize=auto;html=1;" edge="1" parent="1" source="VwUzr8KAtOCYi1jI3wio-2" target="VwUzr8KAtOCYi1jI3wio-6">
          <mxGeometry relative="1" as="geometry" />
        </mxCell>
        <mxCell id="VwUzr8KAtOCYi1jI3wio-10" value="True" style="edgeLabel;html=1;align=center;verticalAlign=middle;resizable=0;points=[];" vertex="1" connectable="0" parent="VwUzr8KAtOCYi1jI3wio-7">
          <mxGeometry x="0.055" y="2" relative="1" as="geometry">
            <mxPoint as="offset" />
          </mxGeometry>
        </mxCell>
        <mxCell id="VwUzr8KAtOCYi1jI3wio-32" style="edgeStyle=orthogonalEdgeStyle;rounded=0;orthogonalLoop=1;jettySize=auto;html=1;exitX=0.5;exitY=1;exitDx=0;exitDy=0;entryX=0.5;entryY=0;entryDx=0;entryDy=0;" edge="1" parent="1" source="VwUzr8KAtOCYi1jI3wio-2" target="VwUzr8KAtOCYi1jI3wio-31">
          <mxGeometry relative="1" as="geometry" />
        </mxCell>
        <mxCell id="VwUzr8KAtOCYi1jI3wio-33" value="False" style="edgeLabel;html=1;align=center;verticalAlign=middle;resizable=0;points=[];" vertex="1" connectable="0" parent="VwUzr8KAtOCYi1jI3wio-32">
          <mxGeometry x="-0.2467" y="-1" relative="1" as="geometry">
            <mxPoint as="offset" />
          </mxGeometry>
        </mxCell>
        <mxCell id="VwUzr8KAtOCYi1jI3wio-2" value="0 &amp;lt; res_x &amp;lt;= len(width)" style="rhombus;whiteSpace=wrap;html=1;rounded=0;" vertex="1" parent="1">
          <mxGeometry x="145" y="230" width="150" height="130" as="geometry" />
        </mxCell>
        <mxCell id="VwUzr8KAtOCYi1jI3wio-5" value="" style="edgeStyle=orthogonalEdgeStyle;rounded=0;orthogonalLoop=1;jettySize=auto;html=1;exitX=0.5;exitY=1;exitDx=0;exitDy=0;" edge="1" parent="1" source="VwUzr8KAtOCYi1jI3wio-1" target="VwUzr8KAtOCYi1jI3wio-4">
          <mxGeometry relative="1" as="geometry">
            <mxPoint x="220" y="140" as="sourcePoint" />
            <mxPoint x="220" y="230" as="targetPoint" />
          </mxGeometry>
        </mxCell>
        <mxCell id="VwUzr8KAtOCYi1jI3wio-4" value="res_x = x + 1" style="text;html=1;align=center;verticalAlign=middle;whiteSpace=wrap;rounded=1;strokeColor=default;" vertex="1" parent="1">
          <mxGeometry x="165" y="140" width="110" height="30" as="geometry" />
        </mxCell>
        <mxCell id="VwUzr8KAtOCYi1jI3wio-12" value="" style="edgeStyle=orthogonalEdgeStyle;rounded=0;orthogonalLoop=1;jettySize=auto;html=1;exitX=1;exitY=0.5;exitDx=0;exitDy=0;" edge="1" parent="1" source="VwUzr8KAtOCYi1jI3wio-6" target="VwUzr8KAtOCYi1jI3wio-11">
          <mxGeometry relative="1" as="geometry" />
        </mxCell>
        <mxCell id="VwUzr8KAtOCYi1jI3wio-13" value="Yes" style="edgeLabel;html=1;align=center;verticalAlign=middle;resizable=0;points=[];" vertex="1" connectable="0" parent="VwUzr8KAtOCYi1jI3wio-12">
          <mxGeometry x="-0.0651" y="-1" relative="1" as="geometry">
            <mxPoint as="offset" />
          </mxGeometry>
        </mxCell>
        <mxCell id="VwUzr8KAtOCYi1jI3wio-15" value="" style="edgeStyle=orthogonalEdgeStyle;rounded=0;orthogonalLoop=1;jettySize=auto;html=1;" edge="1" parent="1" source="VwUzr8KAtOCYi1jI3wio-40" target="VwUzr8KAtOCYi1jI3wio-14">
          <mxGeometry relative="1" as="geometry" />
        </mxCell>
        <mxCell id="VwUzr8KAtOCYi1jI3wio-43" value="No" style="edgeLabel;html=1;align=center;verticalAlign=middle;resizable=0;points=[];" vertex="1" connectable="0" parent="VwUzr8KAtOCYi1jI3wio-15">
          <mxGeometry x="-0.0852" y="1" relative="1" as="geometry">
            <mxPoint as="offset" />
          </mxGeometry>
        </mxCell>
        <mxCell id="VwUzr8KAtOCYi1jI3wio-6" value="Is (res_x, y) finish?" style="rhombus;whiteSpace=wrap;html=1;rounded=0;" vertex="1" parent="1">
          <mxGeometry x="375" y="230" width="150" height="130" as="geometry" />
        </mxCell>
        <mxCell id="VwUzr8KAtOCYi1jI3wio-11" value="return checked points list" style="whiteSpace=wrap;html=1;rounded=1;fillColor=#d5e8d4;strokeColor=#82b366;" vertex="1" parent="1">
          <mxGeometry x="590" y="265" width="120" height="60" as="geometry" />
        </mxCell>
        <mxCell id="VwUzr8KAtOCYi1jI3wio-26" style="edgeStyle=orthogonalEdgeStyle;rounded=0;orthogonalLoop=1;jettySize=auto;html=1;exitX=1;exitY=0.5;exitDx=0;exitDy=0;" edge="1" parent="1" source="VwUzr8KAtOCYi1jI3wio-14" target="VwUzr8KAtOCYi1jI3wio-24">
          <mxGeometry relative="1" as="geometry">
            <mxPoint x="520" y="508" as="sourcePoint" />
            <Array as="points">
              <mxPoint x="780" y="748" />
              <mxPoint x="780" y="-255" />
            </Array>
          </mxGeometry>
        </mxCell>
        <mxCell id="VwUzr8KAtOCYi1jI3wio-27" value="Yes" style="edgeLabel;html=1;align=center;verticalAlign=middle;resizable=0;points=[];" vertex="1" connectable="0" parent="VwUzr8KAtOCYi1jI3wio-26">
          <mxGeometry x="-0.8484" y="3" relative="1" as="geometry">
            <mxPoint as="offset" />
          </mxGeometry>
        </mxCell>
        <mxCell id="VwUzr8KAtOCYi1jI3wio-30" value="" style="edgeStyle=orthogonalEdgeStyle;rounded=0;orthogonalLoop=1;jettySize=auto;html=1;entryX=1;entryY=0.5;entryDx=0;entryDy=0;" edge="1" parent="1" source="VwUzr8KAtOCYi1jI3wio-14" target="VwUzr8KAtOCYi1jI3wio-31">
          <mxGeometry relative="1" as="geometry" />
        </mxCell>
        <mxCell id="VwUzr8KAtOCYi1jI3wio-35" value="No" style="edgeLabel;html=1;align=center;verticalAlign=middle;resizable=0;points=[];" vertex="1" connectable="0" parent="VwUzr8KAtOCYi1jI3wio-30">
          <mxGeometry x="-0.0743" y="-1" relative="1" as="geometry">
            <mxPoint as="offset" />
          </mxGeometry>
        </mxCell>
        <mxCell id="VwUzr8KAtOCYi1jI3wio-14" value="is (res_x, y) passable?" style="rhombus;whiteSpace=wrap;html=1;rounded=0;" vertex="1" parent="1">
          <mxGeometry x="385" y="690" width="130" height="115" as="geometry" />
        </mxCell>
        <mxCell id="VwUzr8KAtOCYi1jI3wio-20" style="edgeStyle=orthogonalEdgeStyle;rounded=0;orthogonalLoop=1;jettySize=auto;html=1;exitX=1;exitY=0.5;exitDx=0;exitDy=0;entryX=0.5;entryY=0;entryDx=0;entryDy=0;" edge="1" parent="1" source="VwUzr8KAtOCYi1jI3wio-17" target="VwUzr8KAtOCYi1jI3wio-11">
          <mxGeometry relative="1" as="geometry" />
        </mxCell>
        <mxCell id="VwUzr8KAtOCYi1jI3wio-21" value="Yes" style="edgeLabel;html=1;align=center;verticalAlign=middle;resizable=0;points=[];" vertex="1" connectable="0" parent="VwUzr8KAtOCYi1jI3wio-20">
          <mxGeometry x="-0.4003" y="-1" relative="1" as="geometry">
            <mxPoint as="offset" />
          </mxGeometry>
        </mxCell>
        <mxCell id="VwUzr8KAtOCYi1jI3wio-22" style="edgeStyle=orthogonalEdgeStyle;rounded=0;orthogonalLoop=1;jettySize=auto;html=1;exitX=0.5;exitY=1;exitDx=0;exitDy=0;" edge="1" parent="1" source="VwUzr8KAtOCYi1jI3wio-17" target="VwUzr8KAtOCYi1jI3wio-1">
          <mxGeometry relative="1" as="geometry" />
        </mxCell>
        <mxCell id="VwUzr8KAtOCYi1jI3wio-23" value="No" style="edgeLabel;html=1;align=center;verticalAlign=middle;resizable=0;points=[];" vertex="1" connectable="0" parent="VwUzr8KAtOCYi1jI3wio-22">
          <mxGeometry x="-0.0578" relative="1" as="geometry">
            <mxPoint as="offset" />
          </mxGeometry>
        </mxCell>
        <mxCell id="VwUzr8KAtOCYi1jI3wio-17" value="is point finish?" style="rhombus;whiteSpace=wrap;html=1;" vertex="1" parent="1">
          <mxGeometry x="150" y="-140" width="140" height="80" as="geometry" />
        </mxCell>
        <mxCell id="VwUzr8KAtOCYi1jI3wio-25" style="edgeStyle=orthogonalEdgeStyle;rounded=0;orthogonalLoop=1;jettySize=auto;html=1;exitX=1;exitY=0.5;exitDx=0;exitDy=0;entryX=0.5;entryY=0;entryDx=0;entryDy=0;" edge="1" parent="1" source="VwUzr8KAtOCYi1jI3wio-24" target="VwUzr8KAtOCYi1jI3wio-17">
          <mxGeometry relative="1" as="geometry" />
        </mxCell>
        <mxCell id="VwUzr8KAtOCYi1jI3wio-24" value="point = (x, y)&lt;div&gt;checked points list&lt;/div&gt;" style="triangle;whiteSpace=wrap;html=1;direction=south;verticalAlign=top;fillColor=#dae8fc;strokeColor=#6c8ebf;" vertex="1" parent="1">
          <mxGeometry x="142.5" y="-310" width="155" height="110" as="geometry" />
        </mxCell>
        <mxCell id="VwUzr8KAtOCYi1jI3wio-28" value="" style="shape=flexArrow;endArrow=classic;html=1;rounded=0;fillColor=#dae8fc;strokeColor=#6c8ebf;" edge="1" parent="1">
          <mxGeometry width="50" height="50" relative="1" as="geometry">
            <mxPoint x="219.5" y="-390" as="sourcePoint" />
            <mxPoint x="219.5" y="-310" as="targetPoint" />
          </mxGeometry>
        </mxCell>
        <mxCell id="VwUzr8KAtOCYi1jI3wio-37" style="edgeStyle=orthogonalEdgeStyle;rounded=0;orthogonalLoop=1;jettySize=auto;html=1;exitX=0.5;exitY=1;exitDx=0;exitDy=0;entryX=0.5;entryY=0;entryDx=0;entryDy=0;" edge="1" parent="1" source="VwUzr8KAtOCYi1jI3wio-31" target="VwUzr8KAtOCYi1jI3wio-36">
          <mxGeometry relative="1" as="geometry" />
        </mxCell>
        <mxCell id="VwUzr8KAtOCYi1jI3wio-31" value="res_x = x - 1" style="rounded=1;whiteSpace=wrap;html=1;" vertex="1" parent="1">
          <mxGeometry x="160" y="472.5" width="120" height="60" as="geometry" />
        </mxCell>
        <mxCell id="VwUzr8KAtOCYi1jI3wio-53" style="edgeStyle=orthogonalEdgeStyle;rounded=0;orthogonalLoop=1;jettySize=auto;html=1;exitX=1;exitY=0.5;exitDx=0;exitDy=0;entryX=0;entryY=0.5;entryDx=0;entryDy=0;" edge="1" parent="1" source="VwUzr8KAtOCYi1jI3wio-36" target="VwUzr8KAtOCYi1jI3wio-48">
          <mxGeometry relative="1" as="geometry" />
        </mxCell>
        <mxCell id="VwUzr8KAtOCYi1jI3wio-54" value="True" style="edgeLabel;html=1;align=center;verticalAlign=middle;resizable=0;points=[];" vertex="1" connectable="0" parent="VwUzr8KAtOCYi1jI3wio-53">
          <mxGeometry x="-0.5252" y="1" relative="1" as="geometry">
            <mxPoint as="offset" />
          </mxGeometry>
        </mxCell>
        <mxCell id="VwUzr8KAtOCYi1jI3wio-57" value="" style="edgeStyle=orthogonalEdgeStyle;rounded=0;orthogonalLoop=1;jettySize=auto;html=1;" edge="1" parent="1" source="VwUzr8KAtOCYi1jI3wio-36" target="VwUzr8KAtOCYi1jI3wio-56">
          <mxGeometry relative="1" as="geometry" />
        </mxCell>
        <mxCell id="VwUzr8KAtOCYi1jI3wio-79" value="False" style="edgeLabel;html=1;align=center;verticalAlign=middle;resizable=0;points=[];" vertex="1" connectable="0" parent="VwUzr8KAtOCYi1jI3wio-57">
          <mxGeometry x="-0.2249" y="-3" relative="1" as="geometry">
            <mxPoint as="offset" />
          </mxGeometry>
        </mxCell>
        <mxCell id="VwUzr8KAtOCYi1jI3wio-36" value="0 &amp;lt; res_x &amp;lt;= len(width)" style="rhombus;whiteSpace=wrap;html=1;rounded=0;" vertex="1" parent="1">
          <mxGeometry x="145" y="870" width="150" height="130" as="geometry" />
        </mxCell>
        <mxCell id="VwUzr8KAtOCYi1jI3wio-41" value="" style="edgeStyle=orthogonalEdgeStyle;rounded=0;orthogonalLoop=1;jettySize=auto;html=1;" edge="1" parent="1" source="VwUzr8KAtOCYi1jI3wio-6" target="VwUzr8KAtOCYi1jI3wio-40">
          <mxGeometry relative="1" as="geometry">
            <mxPoint x="450" y="360" as="sourcePoint" />
            <mxPoint x="445" y="580" as="targetPoint" />
          </mxGeometry>
        </mxCell>
        <mxCell id="VwUzr8KAtOCYi1jI3wio-42" value="No" style="edgeLabel;html=1;align=center;verticalAlign=middle;resizable=0;points=[];" vertex="1" connectable="0" parent="VwUzr8KAtOCYi1jI3wio-41">
          <mxGeometry x="-0.3133" y="-5" relative="1" as="geometry">
            <mxPoint as="offset" />
          </mxGeometry>
        </mxCell>
        <mxCell id="VwUzr8KAtOCYi1jI3wio-44" style="edgeStyle=orthogonalEdgeStyle;rounded=0;orthogonalLoop=1;jettySize=auto;html=1;exitX=0;exitY=0.5;exitDx=0;exitDy=0;entryX=1;entryY=0.5;entryDx=0;entryDy=0;" edge="1" parent="1" source="VwUzr8KAtOCYi1jI3wio-40" target="VwUzr8KAtOCYi1jI3wio-31">
          <mxGeometry relative="1" as="geometry" />
        </mxCell>
        <mxCell id="VwUzr8KAtOCYi1jI3wio-45" value="Yes" style="edgeLabel;html=1;align=center;verticalAlign=middle;resizable=0;points=[];" vertex="1" connectable="0" parent="VwUzr8KAtOCYi1jI3wio-44">
          <mxGeometry x="-0.2457" y="1" relative="1" as="geometry">
            <mxPoint x="13" y="-1" as="offset" />
          </mxGeometry>
        </mxCell>
        <mxCell id="VwUzr8KAtOCYi1jI3wio-40" value="is (res_x, y) in checked points list?" style="rhombus;whiteSpace=wrap;html=1;rounded=0;" vertex="1" parent="1">
          <mxGeometry x="372.5" y="420" width="155" height="165" as="geometry" />
        </mxCell>
        <mxCell id="VwUzr8KAtOCYi1jI3wio-46" value="" style="edgeStyle=orthogonalEdgeStyle;rounded=0;orthogonalLoop=1;jettySize=auto;html=1;" edge="1" parent="1" source="VwUzr8KAtOCYi1jI3wio-52" target="VwUzr8KAtOCYi1jI3wio-49">
          <mxGeometry relative="1" as="geometry" />
        </mxCell>
        <mxCell id="VwUzr8KAtOCYi1jI3wio-47" value="No" style="edgeLabel;html=1;align=center;verticalAlign=middle;resizable=0;points=[];" vertex="1" connectable="0" parent="VwUzr8KAtOCYi1jI3wio-46">
          <mxGeometry x="-0.0852" y="1" relative="1" as="geometry">
            <mxPoint as="offset" />
          </mxGeometry>
        </mxCell>
        <mxCell id="VwUzr8KAtOCYi1jI3wio-55" style="edgeStyle=orthogonalEdgeStyle;rounded=0;orthogonalLoop=1;jettySize=auto;html=1;exitX=1;exitY=0.5;exitDx=0;exitDy=0;entryX=0.5;entryY=1;entryDx=0;entryDy=0;" edge="1" parent="1" source="VwUzr8KAtOCYi1jI3wio-48" target="VwUzr8KAtOCYi1jI3wio-11">
          <mxGeometry relative="1" as="geometry" />
        </mxCell>
        <mxCell id="VwUzr8KAtOCYi1jI3wio-64" value="Yes" style="edgeLabel;html=1;align=center;verticalAlign=middle;resizable=0;points=[];" vertex="1" connectable="0" parent="VwUzr8KAtOCYi1jI3wio-55">
          <mxGeometry x="-0.8708" relative="1" as="geometry">
            <mxPoint as="offset" />
          </mxGeometry>
        </mxCell>
        <mxCell id="VwUzr8KAtOCYi1jI3wio-48" value="Is (res_x, y) finish?" style="rhombus;whiteSpace=wrap;html=1;rounded=0;" vertex="1" parent="1">
          <mxGeometry x="372.5" y="870" width="150" height="130" as="geometry" />
        </mxCell>
        <mxCell id="VwUzr8KAtOCYi1jI3wio-60" style="edgeStyle=orthogonalEdgeStyle;rounded=0;orthogonalLoop=1;jettySize=auto;html=1;exitX=0;exitY=0.5;exitDx=0;exitDy=0;entryX=1;entryY=0.5;entryDx=0;entryDy=0;" edge="1" parent="1" source="VwUzr8KAtOCYi1jI3wio-49" target="VwUzr8KAtOCYi1jI3wio-56">
          <mxGeometry relative="1" as="geometry" />
        </mxCell>
        <mxCell id="VwUzr8KAtOCYi1jI3wio-61" value="No" style="edgeLabel;html=1;align=center;verticalAlign=middle;resizable=0;points=[];" vertex="1" connectable="0" parent="VwUzr8KAtOCYi1jI3wio-60">
          <mxGeometry x="-0.2764" y="1" relative="1" as="geometry">
            <mxPoint as="offset" />
          </mxGeometry>
        </mxCell>
        <mxCell id="VwUzr8KAtOCYi1jI3wio-49" value="is (res_x, y) passable?" style="rhombus;whiteSpace=wrap;html=1;rounded=0;" vertex="1" parent="1">
          <mxGeometry x="382.5" y="1320" width="130" height="115" as="geometry" />
        </mxCell>
        <mxCell id="VwUzr8KAtOCYi1jI3wio-50" value="" style="edgeStyle=orthogonalEdgeStyle;rounded=0;orthogonalLoop=1;jettySize=auto;html=1;" edge="1" parent="1" source="VwUzr8KAtOCYi1jI3wio-48" target="VwUzr8KAtOCYi1jI3wio-52">
          <mxGeometry relative="1" as="geometry">
            <mxPoint x="447.5" y="1000" as="sourcePoint" />
            <mxPoint x="442.5" y="1220" as="targetPoint" />
          </mxGeometry>
        </mxCell>
        <mxCell id="VwUzr8KAtOCYi1jI3wio-51" value="No" style="edgeLabel;html=1;align=center;verticalAlign=middle;resizable=0;points=[];" vertex="1" connectable="0" parent="VwUzr8KAtOCYi1jI3wio-50">
          <mxGeometry x="-0.3133" y="-5" relative="1" as="geometry">
            <mxPoint as="offset" />
          </mxGeometry>
        </mxCell>
        <mxCell id="VwUzr8KAtOCYi1jI3wio-58" style="edgeStyle=orthogonalEdgeStyle;rounded=0;orthogonalLoop=1;jettySize=auto;html=1;exitX=0;exitY=0.5;exitDx=0;exitDy=0;entryX=1;entryY=0.5;entryDx=0;entryDy=0;" edge="1" parent="1" source="VwUzr8KAtOCYi1jI3wio-52" target="VwUzr8KAtOCYi1jI3wio-56">
          <mxGeometry relative="1" as="geometry" />
        </mxCell>
        <mxCell id="VwUzr8KAtOCYi1jI3wio-59" value="yes" style="edgeLabel;html=1;align=center;verticalAlign=middle;resizable=0;points=[];" vertex="1" connectable="0" parent="VwUzr8KAtOCYi1jI3wio-58">
          <mxGeometry x="0.0578" relative="1" as="geometry">
            <mxPoint x="28" as="offset" />
          </mxGeometry>
        </mxCell>
        <mxCell id="VwUzr8KAtOCYi1jI3wio-52" value="is (res_x, y) in checked points list?" style="rhombus;whiteSpace=wrap;html=1;rounded=0;" vertex="1" parent="1">
          <mxGeometry x="370" y="1060" width="155" height="165" as="geometry" />
        </mxCell>
        <mxCell id="VwUzr8KAtOCYi1jI3wio-66" value="" style="edgeStyle=orthogonalEdgeStyle;rounded=0;orthogonalLoop=1;jettySize=auto;html=1;" edge="1" parent="1" source="VwUzr8KAtOCYi1jI3wio-56" target="VwUzr8KAtOCYi1jI3wio-65">
          <mxGeometry relative="1" as="geometry" />
        </mxCell>
        <mxCell id="VwUzr8KAtOCYi1jI3wio-56" value="res_y = y + 1" style="whiteSpace=wrap;html=1;rounded=1;" vertex="1" parent="1">
          <mxGeometry x="160" y="1112.5" width="120" height="60" as="geometry" />
        </mxCell>
        <mxCell id="VwUzr8KAtOCYi1jI3wio-62" style="edgeStyle=orthogonalEdgeStyle;rounded=0;orthogonalLoop=1;jettySize=auto;html=1;exitX=1;exitY=0.5;exitDx=0;exitDy=0;entryX=0.5;entryY=0;entryDx=0;entryDy=0;" edge="1" parent="1" source="VwUzr8KAtOCYi1jI3wio-49" target="VwUzr8KAtOCYi1jI3wio-24">
          <mxGeometry relative="1" as="geometry">
            <mxPoint x="575.31" y="1370.5" as="sourcePoint" />
            <mxPoint x="360.00000000000006" y="-309.96000000000004" as="targetPoint" />
            <Array as="points">
              <mxPoint x="780" y="1378" />
              <mxPoint x="780" y="-255" />
            </Array>
          </mxGeometry>
        </mxCell>
        <mxCell id="VwUzr8KAtOCYi1jI3wio-63" value="Yes" style="edgeLabel;html=1;align=center;verticalAlign=middle;resizable=0;points=[];" vertex="1" connectable="0" parent="VwUzr8KAtOCYi1jI3wio-62">
          <mxGeometry x="-0.9524" relative="1" as="geometry">
            <mxPoint as="offset" />
          </mxGeometry>
        </mxCell>
        <mxCell id="VwUzr8KAtOCYi1jI3wio-75" style="edgeStyle=orthogonalEdgeStyle;rounded=0;orthogonalLoop=1;jettySize=auto;html=1;exitX=1;exitY=0.5;exitDx=0;exitDy=0;" edge="1" parent="1" source="VwUzr8KAtOCYi1jI3wio-65" target="VwUzr8KAtOCYi1jI3wio-69">
          <mxGeometry relative="1" as="geometry" />
        </mxCell>
        <mxCell id="VwUzr8KAtOCYi1jI3wio-76" value="True" style="edgeLabel;html=1;align=center;verticalAlign=middle;resizable=0;points=[];" vertex="1" connectable="0" parent="VwUzr8KAtOCYi1jI3wio-75">
          <mxGeometry x="-0.2562" y="1" relative="1" as="geometry">
            <mxPoint as="offset" />
          </mxGeometry>
        </mxCell>
        <mxCell id="VwUzr8KAtOCYi1jI3wio-81" value="" style="edgeStyle=orthogonalEdgeStyle;rounded=0;orthogonalLoop=1;jettySize=auto;html=1;" edge="1" parent="1" source="VwUzr8KAtOCYi1jI3wio-65" target="VwUzr8KAtOCYi1jI3wio-80">
          <mxGeometry relative="1" as="geometry" />
        </mxCell>
        <mxCell id="VwUzr8KAtOCYi1jI3wio-82" value="False" style="edgeLabel;html=1;align=center;verticalAlign=middle;resizable=0;points=[];" vertex="1" connectable="0" parent="VwUzr8KAtOCYi1jI3wio-81">
          <mxGeometry x="-0.4062" y="-1" relative="1" as="geometry">
            <mxPoint as="offset" />
          </mxGeometry>
        </mxCell>
        <mxCell id="VwUzr8KAtOCYi1jI3wio-65" value="0 &amp;lt; res_y &amp;lt;= len(heigth)" style="rhombus;whiteSpace=wrap;html=1;rounded=0;" vertex="1" parent="1">
          <mxGeometry x="150" y="1495" width="140" height="160" as="geometry" />
        </mxCell>
        <mxCell id="VwUzr8KAtOCYi1jI3wio-67" value="" style="edgeStyle=orthogonalEdgeStyle;rounded=0;orthogonalLoop=1;jettySize=auto;html=1;" edge="1" parent="1" source="VwUzr8KAtOCYi1jI3wio-74" target="VwUzr8KAtOCYi1jI3wio-70">
          <mxGeometry relative="1" as="geometry" />
        </mxCell>
        <mxCell id="VwUzr8KAtOCYi1jI3wio-68" value="No" style="edgeLabel;html=1;align=center;verticalAlign=middle;resizable=0;points=[];" vertex="1" connectable="0" parent="VwUzr8KAtOCYi1jI3wio-67">
          <mxGeometry x="-0.0852" y="1" relative="1" as="geometry">
            <mxPoint as="offset" />
          </mxGeometry>
        </mxCell>
        <mxCell id="VwUzr8KAtOCYi1jI3wio-77" style="edgeStyle=orthogonalEdgeStyle;rounded=0;orthogonalLoop=1;jettySize=auto;html=1;exitX=1;exitY=0.5;exitDx=0;exitDy=0;entryX=0.5;entryY=1;entryDx=0;entryDy=0;" edge="1" parent="1" source="VwUzr8KAtOCYi1jI3wio-69" target="VwUzr8KAtOCYi1jI3wio-11">
          <mxGeometry relative="1" as="geometry" />
        </mxCell>
        <mxCell id="VwUzr8KAtOCYi1jI3wio-78" value="Yes" style="edgeLabel;html=1;align=center;verticalAlign=middle;resizable=0;points=[];" vertex="1" connectable="0" parent="VwUzr8KAtOCYi1jI3wio-77">
          <mxGeometry x="-0.9295" y="3" relative="1" as="geometry">
            <mxPoint as="offset" />
          </mxGeometry>
        </mxCell>
        <mxCell id="VwUzr8KAtOCYi1jI3wio-69" value="Is (res_y, x) finish?" style="rhombus;whiteSpace=wrap;html=1;rounded=0;" vertex="1" parent="1">
          <mxGeometry x="382.5" y="1510" width="150" height="130" as="geometry" />
        </mxCell>
        <mxCell id="VwUzr8KAtOCYi1jI3wio-88" style="edgeStyle=orthogonalEdgeStyle;rounded=0;orthogonalLoop=1;jettySize=auto;html=1;exitX=0;exitY=0.5;exitDx=0;exitDy=0;entryX=1;entryY=0.5;entryDx=0;entryDy=0;" edge="1" parent="1" source="VwUzr8KAtOCYi1jI3wio-70" target="VwUzr8KAtOCYi1jI3wio-80">
          <mxGeometry relative="1" as="geometry" />
        </mxCell>
        <mxCell id="VwUzr8KAtOCYi1jI3wio-89" value="No" style="edgeLabel;html=1;align=center;verticalAlign=middle;resizable=0;points=[];" vertex="1" connectable="0" parent="VwUzr8KAtOCYi1jI3wio-88">
          <mxGeometry x="-0.4124" y="-2" relative="1" as="geometry">
            <mxPoint as="offset" />
          </mxGeometry>
        </mxCell>
        <mxCell id="VwUzr8KAtOCYi1jI3wio-112" style="edgeStyle=orthogonalEdgeStyle;rounded=0;orthogonalLoop=1;jettySize=auto;html=1;exitX=1;exitY=0.5;exitDx=0;exitDy=0;entryX=0.5;entryY=0;entryDx=0;entryDy=0;" edge="1" parent="1" source="VwUzr8KAtOCYi1jI3wio-70" target="VwUzr8KAtOCYi1jI3wio-24">
          <mxGeometry relative="1" as="geometry">
            <Array as="points">
              <mxPoint x="780" y="2018" />
              <mxPoint x="780" y="-255" />
            </Array>
          </mxGeometry>
        </mxCell>
        <mxCell id="VwUzr8KAtOCYi1jI3wio-114" value="Yes" style="edgeLabel;html=1;align=center;verticalAlign=middle;resizable=0;points=[];" vertex="1" connectable="0" parent="VwUzr8KAtOCYi1jI3wio-112">
          <mxGeometry x="-0.962" y="-3" relative="1" as="geometry">
            <mxPoint as="offset" />
          </mxGeometry>
        </mxCell>
        <mxCell id="VwUzr8KAtOCYi1jI3wio-70" value="is (res_y, x) passable?" style="rhombus;whiteSpace=wrap;html=1;rounded=0;" vertex="1" parent="1">
          <mxGeometry x="392.5" y="1960" width="130" height="115" as="geometry" />
        </mxCell>
        <mxCell id="VwUzr8KAtOCYi1jI3wio-71" value="" style="edgeStyle=orthogonalEdgeStyle;rounded=0;orthogonalLoop=1;jettySize=auto;html=1;" edge="1" parent="1" source="VwUzr8KAtOCYi1jI3wio-69" target="VwUzr8KAtOCYi1jI3wio-74">
          <mxGeometry relative="1" as="geometry">
            <mxPoint x="457.5" y="1640" as="sourcePoint" />
            <mxPoint x="452.5" y="1860" as="targetPoint" />
          </mxGeometry>
        </mxCell>
        <mxCell id="VwUzr8KAtOCYi1jI3wio-72" value="No" style="edgeLabel;html=1;align=center;verticalAlign=middle;resizable=0;points=[];" vertex="1" connectable="0" parent="VwUzr8KAtOCYi1jI3wio-71">
          <mxGeometry x="-0.3133" y="-5" relative="1" as="geometry">
            <mxPoint as="offset" />
          </mxGeometry>
        </mxCell>
        <mxCell id="VwUzr8KAtOCYi1jI3wio-85" style="edgeStyle=orthogonalEdgeStyle;rounded=0;orthogonalLoop=1;jettySize=auto;html=1;exitX=0;exitY=0.5;exitDx=0;exitDy=0;entryX=1;entryY=0.5;entryDx=0;entryDy=0;" edge="1" parent="1" source="VwUzr8KAtOCYi1jI3wio-74" target="VwUzr8KAtOCYi1jI3wio-80">
          <mxGeometry relative="1" as="geometry">
            <Array as="points">
              <mxPoint x="340" y="1783" />
              <mxPoint x="340" y="1783" />
            </Array>
          </mxGeometry>
        </mxCell>
        <mxCell id="VwUzr8KAtOCYi1jI3wio-87" value="Yes" style="edgeLabel;html=1;align=center;verticalAlign=middle;resizable=0;points=[];" vertex="1" connectable="0" parent="VwUzr8KAtOCYi1jI3wio-85">
          <mxGeometry x="-0.528" relative="1" as="geometry">
            <mxPoint as="offset" />
          </mxGeometry>
        </mxCell>
        <mxCell id="VwUzr8KAtOCYi1jI3wio-74" value="is (res_y, x) in checked points list?" style="rhombus;whiteSpace=wrap;html=1;rounded=0;" vertex="1" parent="1">
          <mxGeometry x="380" y="1700" width="155" height="165" as="geometry" />
        </mxCell>
        <mxCell id="VwUzr8KAtOCYi1jI3wio-84" value="" style="edgeStyle=orthogonalEdgeStyle;rounded=0;orthogonalLoop=1;jettySize=auto;html=1;" edge="1" parent="1" source="VwUzr8KAtOCYi1jI3wio-80" target="VwUzr8KAtOCYi1jI3wio-83">
          <mxGeometry relative="1" as="geometry" />
        </mxCell>
        <mxCell id="VwUzr8KAtOCYi1jI3wio-80" value="res_y = y - 1" style="whiteSpace=wrap;html=1;rounded=1;" vertex="1" parent="1">
          <mxGeometry x="160" y="1752.5" width="120" height="60" as="geometry" />
        </mxCell>
        <mxCell id="VwUzr8KAtOCYi1jI3wio-101" style="edgeStyle=orthogonalEdgeStyle;rounded=0;orthogonalLoop=1;jettySize=auto;html=1;exitX=1;exitY=0.5;exitDx=0;exitDy=0;entryX=0;entryY=0.5;entryDx=0;entryDy=0;" edge="1" parent="1" source="VwUzr8KAtOCYi1jI3wio-83" target="VwUzr8KAtOCYi1jI3wio-94">
          <mxGeometry relative="1" as="geometry">
            <Array as="points">
              <mxPoint x="340" y="2185" />
              <mxPoint x="340" y="2185" />
            </Array>
          </mxGeometry>
        </mxCell>
        <mxCell id="VwUzr8KAtOCYi1jI3wio-102" value="True" style="edgeLabel;html=1;align=center;verticalAlign=middle;resizable=0;points=[];" vertex="1" connectable="0" parent="VwUzr8KAtOCYi1jI3wio-101">
          <mxGeometry x="-0.6618" y="-1" relative="1" as="geometry">
            <mxPoint as="offset" />
          </mxGeometry>
        </mxCell>
        <mxCell id="VwUzr8KAtOCYi1jI3wio-106" value="" style="edgeStyle=orthogonalEdgeStyle;rounded=0;orthogonalLoop=1;jettySize=auto;html=1;" edge="1" parent="1" source="VwUzr8KAtOCYi1jI3wio-83" target="VwUzr8KAtOCYi1jI3wio-105">
          <mxGeometry relative="1" as="geometry" />
        </mxCell>
        <mxCell id="VwUzr8KAtOCYi1jI3wio-107" value="False" style="edgeLabel;html=1;align=center;verticalAlign=middle;resizable=0;points=[];" vertex="1" connectable="0" parent="VwUzr8KAtOCYi1jI3wio-106">
          <mxGeometry x="-0.4272" relative="1" as="geometry">
            <mxPoint as="offset" />
          </mxGeometry>
        </mxCell>
        <mxCell id="VwUzr8KAtOCYi1jI3wio-83" value="0 &amp;lt; res_y &amp;lt;= len(heigth)" style="rhombus;whiteSpace=wrap;html=1;rounded=0;" vertex="1" parent="1">
          <mxGeometry x="145" y="2110" width="150" height="150" as="geometry" />
        </mxCell>
        <mxCell id="VwUzr8KAtOCYi1jI3wio-91" value="" style="edgeStyle=orthogonalEdgeStyle;rounded=0;orthogonalLoop=1;jettySize=auto;html=1;" edge="1" parent="1" source="VwUzr8KAtOCYi1jI3wio-100" target="VwUzr8KAtOCYi1jI3wio-96">
          <mxGeometry relative="1" as="geometry" />
        </mxCell>
        <mxCell id="VwUzr8KAtOCYi1jI3wio-92" value="No" style="edgeLabel;html=1;align=center;verticalAlign=middle;resizable=0;points=[];" vertex="1" connectable="0" parent="VwUzr8KAtOCYi1jI3wio-91">
          <mxGeometry x="-0.0852" y="1" relative="1" as="geometry">
            <mxPoint as="offset" />
          </mxGeometry>
        </mxCell>
        <mxCell id="VwUzr8KAtOCYi1jI3wio-103" style="edgeStyle=orthogonalEdgeStyle;rounded=0;orthogonalLoop=1;jettySize=auto;html=1;exitX=1;exitY=0.5;exitDx=0;exitDy=0;entryX=0.5;entryY=1;entryDx=0;entryDy=0;" edge="1" parent="1" source="VwUzr8KAtOCYi1jI3wio-94" target="VwUzr8KAtOCYi1jI3wio-11">
          <mxGeometry relative="1" as="geometry" />
        </mxCell>
        <mxCell id="VwUzr8KAtOCYi1jI3wio-104" value="Yes" style="edgeLabel;html=1;align=center;verticalAlign=middle;resizable=0;points=[];" vertex="1" connectable="0" parent="VwUzr8KAtOCYi1jI3wio-103">
          <mxGeometry x="-0.9492" relative="1" as="geometry">
            <mxPoint as="offset" />
          </mxGeometry>
        </mxCell>
        <mxCell id="VwUzr8KAtOCYi1jI3wio-94" value="Is (res_y, x) finish?" style="rhombus;whiteSpace=wrap;html=1;rounded=0;" vertex="1" parent="1">
          <mxGeometry x="387.5" y="2120" width="150" height="130" as="geometry" />
        </mxCell>
        <mxCell id="VwUzr8KAtOCYi1jI3wio-110" style="edgeStyle=orthogonalEdgeStyle;rounded=0;orthogonalLoop=1;jettySize=auto;html=1;exitX=0;exitY=0.5;exitDx=0;exitDy=0;entryX=0.5;entryY=1;entryDx=0;entryDy=0;" edge="1" parent="1" source="VwUzr8KAtOCYi1jI3wio-96" target="VwUzr8KAtOCYi1jI3wio-105">
          <mxGeometry relative="1" as="geometry" />
        </mxCell>
        <mxCell id="VwUzr8KAtOCYi1jI3wio-111" value="No" style="edgeLabel;html=1;align=center;verticalAlign=middle;resizable=0;points=[];" vertex="1" connectable="0" parent="VwUzr8KAtOCYi1jI3wio-110">
          <mxGeometry x="-0.6648" y="2" relative="1" as="geometry">
            <mxPoint as="offset" />
          </mxGeometry>
        </mxCell>
        <mxCell id="VwUzr8KAtOCYi1jI3wio-115" style="edgeStyle=orthogonalEdgeStyle;rounded=0;orthogonalLoop=1;jettySize=auto;html=1;exitX=1;exitY=0.5;exitDx=0;exitDy=0;entryX=0.5;entryY=0;entryDx=0;entryDy=0;" edge="1" parent="1" source="VwUzr8KAtOCYi1jI3wio-96" target="VwUzr8KAtOCYi1jI3wio-24">
          <mxGeometry relative="1" as="geometry">
            <Array as="points">
              <mxPoint x="780" y="2628" />
              <mxPoint x="780" y="-255" />
            </Array>
          </mxGeometry>
        </mxCell>
        <mxCell id="VwUzr8KAtOCYi1jI3wio-116" value="Yes" style="edgeLabel;html=1;align=center;verticalAlign=middle;resizable=0;points=[];" vertex="1" connectable="0" parent="VwUzr8KAtOCYi1jI3wio-115">
          <mxGeometry x="-0.9738" y="2" relative="1" as="geometry">
            <mxPoint as="offset" />
          </mxGeometry>
        </mxCell>
        <mxCell id="VwUzr8KAtOCYi1jI3wio-96" value="is (res_y, x) passable?" style="rhombus;whiteSpace=wrap;html=1;rounded=0;" vertex="1" parent="1">
          <mxGeometry x="397.5" y="2570" width="130" height="115" as="geometry" />
        </mxCell>
        <mxCell id="VwUzr8KAtOCYi1jI3wio-97" value="" style="edgeStyle=orthogonalEdgeStyle;rounded=0;orthogonalLoop=1;jettySize=auto;html=1;" edge="1" parent="1" source="VwUzr8KAtOCYi1jI3wio-94" target="VwUzr8KAtOCYi1jI3wio-100">
          <mxGeometry relative="1" as="geometry">
            <mxPoint x="462.5" y="2250" as="sourcePoint" />
            <mxPoint x="457.5" y="2470" as="targetPoint" />
          </mxGeometry>
        </mxCell>
        <mxCell id="VwUzr8KAtOCYi1jI3wio-98" value="No" style="edgeLabel;html=1;align=center;verticalAlign=middle;resizable=0;points=[];" vertex="1" connectable="0" parent="VwUzr8KAtOCYi1jI3wio-97">
          <mxGeometry x="-0.3133" y="-5" relative="1" as="geometry">
            <mxPoint as="offset" />
          </mxGeometry>
        </mxCell>
        <mxCell id="VwUzr8KAtOCYi1jI3wio-108" style="edgeStyle=orthogonalEdgeStyle;rounded=0;orthogonalLoop=1;jettySize=auto;html=1;exitX=0;exitY=0.5;exitDx=0;exitDy=0;entryX=1;entryY=0.5;entryDx=0;entryDy=0;" edge="1" parent="1" source="VwUzr8KAtOCYi1jI3wio-100" target="VwUzr8KAtOCYi1jI3wio-105">
          <mxGeometry relative="1" as="geometry" />
        </mxCell>
        <mxCell id="VwUzr8KAtOCYi1jI3wio-109" value="Yes" style="edgeLabel;html=1;align=center;verticalAlign=middle;resizable=0;points=[];" vertex="1" connectable="0" parent="VwUzr8KAtOCYi1jI3wio-108">
          <mxGeometry x="-0.1124" y="1" relative="1" as="geometry">
            <mxPoint as="offset" />
          </mxGeometry>
        </mxCell>
        <mxCell id="VwUzr8KAtOCYi1jI3wio-100" value="is (res_y, x) in checked points list?" style="rhombus;whiteSpace=wrap;html=1;rounded=0;" vertex="1" parent="1">
          <mxGeometry x="385" y="2310" width="155" height="165" as="geometry" />
        </mxCell>
        <mxCell id="VwUzr8KAtOCYi1jI3wio-105" value="return False (?)" style="whiteSpace=wrap;html=1;rounded=1;fillColor=#f8cecc;strokeColor=#b85450;" vertex="1" parent="1">
          <mxGeometry x="160" y="2362.5" width="120" height="60" as="geometry" />
        </mxCell>
        <mxCell id="VwUzr8KAtOCYi1jI3wio-117" value="" style="shape=flexArrow;endArrow=classic;html=1;rounded=0;endWidth=14;endSize=5.67;fillColor=#f8cecc;strokeColor=#b85450;" edge="1" parent="1">
          <mxGeometry width="50" height="50" relative="1" as="geometry">
            <mxPoint x="160" y="2392" as="sourcePoint" />
            <mxPoint x="70" y="2392" as="targetPoint" />
          </mxGeometry>
        </mxCell>
        <mxCell id="VwUzr8KAtOCYi1jI3wio-120" value="" style="shape=flexArrow;endArrow=classic;html=1;rounded=0;fillColor=#d5e8d4;strokeColor=#82b366;" edge="1" parent="1">
          <mxGeometry width="50" height="50" relative="1" as="geometry">
            <mxPoint x="710" y="294.5" as="sourcePoint" />
            <mxPoint x="830" y="294.5" as="targetPoint" />
          </mxGeometry>
        </mxCell>
      </root>
    </mxGraphModel>
  </diagram>
</mxfile>
